<svg xmlns="http://www.w3.org/2000/svg" viewBox="0 0 64 64">
  <defs>
    <linearGradient id="foil" x1="0" y1="0" x2="1" y2="1">
      <stop offset="0" stop-color="#f2dc9a"/>
      <stop offset="0.4" stop-color="#d8b25a"/>
      <stop offset="0.7" stop-color="#b98a2f"/>
      <stop offset="1" stop-color="#ecca7c"/>
    </linearGradient>
  </defs>
  <rect width="64" height="64" rx="14" fill="#17100b"/>
  <rect x="3.5" y="3.5" width="57" height="57" rx="11" fill="none" stroke="url(#foil)" stroke-width="1.4" opacity="0.75"/>
  <!-- 两片半月形筊杯（一凸一平 = 圣杯意象） -->
  <path d="M20 44c-6-2-9-9-7-15 1.6-4.8 6-8 10.4-8 1.6 0 2.4 1.8 1.5 3.1C22 32 21 38 24 43c.9 1.4-.4 3.2-2 2.6z" fill="url(#foil)"/>
  <path d="M44 44c6-2 9-9 7-15-1.6-4.8-6-8-10.4-8-1.6 0-2.4 1.8-1.5 3.1C42 32 43 38 40 43c-.9 1.4.4 3.2 2 2.6z" fill="#a6332b" stroke="url(#foil)" stroke-width="1.2"/>
</svg>
